# xmcd
#
# Track frame offsets:
# 150
# 29381
# 51151
# 69426
# 84394
# 111916
# 135884
# 168843
# 185227
# 205114
# 213309
# 221541
# 232953
# 250852
# 282467
#
# Disc length: 4390 seconds
#
#
# Revision: 0
# Processed by: cddbd v1.5.2PL0 Copyright (c) Steve Scherf et al.
# Submitted via: FreeRIP 2.70 
#
DISCID=d511240f
DTITLE=Von Ewald - Well Being
DYEAR=2007
DGENRE=A Cappella
TTITLE0=Well Being     Many Miles to Go
TTITLE1=Well Being     Relax Away
TTITLE2=Well Being     Highest and Farthest Away
TTITLE3=Well Being     Eleanor Plunkett
TTITLE4=Well Being     Dakota
TTITLE5=Well Being     First Light
TTITLE6=Well Being     Pierrced Heart
TTITLE7=Well Being     Arrane Ghelbee
TTITLE8=Well Being     Weeping Softly
TTITLE9=Well Being     Dija
TTITLE10=Well Being     Eyes Behind the Veil
TTITLE11=Well Being     Prayer For Our Littlie One
TTITLE12=Well Being     Blind Mary
TTITLE13=Well Being     Never Forgotten
TTITLE14=
EXTD=
EXTT0=
EXTT1=
EXTT2=
EXTT3=
EXTT4=
EXTT5=
EXTT6=
EXTT7=
EXTT8=
EXTT9=
EXTT10=
EXTT11=
EXTT12=
EXTT13=
EXTT14=
PLAYORDER=
